<svg width="160" height="160" viewBox="0 0 160 160" fill="none" xmlns="http://www.w3.org/2000/svg">
<path opacity="0.05" fill-rule="evenodd" clip-rule="evenodd" d="M88.5981 145.356C87.401 145.356 86.258 145.116 85.4039 144.626L18.7727 106.396C16.8876 105.315 17.1238 103.426 19.301 102.177L22.7207 100.216L85.6751 136.335C85.6825 136.339 85.69 136.343 85.697 136.347C86.5833 136.849 87.7632 137.095 88.9986 137.095C90.5023 137.095 92.0883 136.731 93.3274 136.02L135.118 112.051L138.657 114.081C140.542 115.162 140.306 117.051 138.129 118.3L92.758 144.323C91.5679 145.006 90.0436 145.356 88.5981 145.356Z" fill="#000E4B"/>
<path fill-rule="evenodd" clip-rule="evenodd" d="M157.327 40.2058L87.9933 0.425863C87.1883 -0.0360841 86.3701 -0.107046 85.6439 0.139697L85.6485 0.132276L85.5221 0.180048L85.4917 0.191179L82.9864 1.14429L85.235 2.23794C85.2243 2.27922 85.2117 2.31771 85.2028 2.35992L73.9091 53.445C73.3439 56.0015 74.4757 58.9865 76.4369 60.1112L144.103 98.9343L143.862 101.784L146.6 100.729C147.52 100.302 148.257 99.3346 148.561 97.9571L159.855 46.872C160.42 44.3155 159.288 41.3305 157.327 40.2058Z" fill="#0037A1"/>
<path fill-rule="evenodd" clip-rule="evenodd" d="M157.329 40.2058L87.9955 0.425863C87.1904 -0.0360841 86.3722 -0.107046 85.646 0.139697L85.6507 0.132276L85.5242 0.180048L85.4939 0.191179L82.9885 1.14429L85.2372 2.23794C85.2264 2.27922 85.2138 2.31771 85.205 2.35992L77.7617 36.0283L111.686 62.293L159.519 42.9515C159.059 41.7674 158.296 40.76 157.329 40.2058Z" fill="#B4D0F6"/>
<path fill-rule="evenodd" clip-rule="evenodd" d="M154.713 48.0581L159.991 45.8253C160.087 43.7939 159.241 41.6952 157.853 40.5732L149.498 44.0657L154.713 48.0581Z" fill="#92B6E7"/>
<path fill-rule="evenodd" clip-rule="evenodd" d="M141.454 101.513L72.121 61.7332C70.1593 60.608 69.0275 57.623 69.5927 55.067L80.8864 3.98145C81.4511 1.42497 83.4996 0.264535 85.4607 1.38972L154.794 41.1696C156.755 42.2948 157.888 45.2794 157.323 47.8363L146.029 98.9209C145.464 101.478 143.416 102.638 141.454 101.513Z" fill="#D7E8FE"/>
<path fill-rule="evenodd" clip-rule="evenodd" d="M155.46 40.9272L86.1259 1.14824C85.1761 0.603274 84.2086 0.603738 83.3965 1.03044C84.0485 0.888513 84.7584 0.987303 85.4603 1.39035L154.794 41.1693C156.755 42.2945 157.887 45.28 157.322 47.8365L146.029 98.9211C145.738 100.239 145.048 101.177 144.184 101.63C145.354 101.376 146.331 100.321 146.694 98.6794L157.988 47.5944C158.553 45.0374 157.421 42.0528 155.46 40.9272Z" fill="#FFFFFE"/>
<path fill-rule="evenodd" clip-rule="evenodd" d="M139.952 97.7129L74.745 60.3197C72.9504 59.2896 71.9148 56.5583 72.4319 54.2189L82.766 7.47176C83.2831 5.13234 85.1575 4.0707 86.9525 5.10034L152.159 42.494C153.954 43.5236 154.989 46.2554 154.473 48.5944L144.138 95.3415C143.621 97.6809 141.747 98.7425 139.952 97.7129Z" fill="#FFFFFE"/>
<path fill-rule="evenodd" clip-rule="evenodd" d="M139.952 97.7129L74.745 60.3197C72.9504 59.2896 71.9148 56.5583 72.4319 54.2189L82.766 7.47176C83.2831 5.13234 85.1575 4.0707 86.9525 5.10034L152.159 42.494C153.954 43.5236 154.989 46.2554 154.473 48.5944L144.138 95.3415C143.621 97.6809 141.747 98.7425 139.952 97.7129Z" fill="#000E4B"/>
<path fill-rule="evenodd" clip-rule="evenodd" d="M140.52 97.4833L75.3134 60.0897C73.5189 59.0601 72.4833 56.3283 72.9999 53.9893L83.3345 7.24172C83.5963 6.0581 84.2068 5.20563 84.9773 4.78125C83.9436 5.04562 83.0895 6.00847 82.766 7.47177L72.4319 54.2184C71.9148 56.5583 72.9504 59.2897 74.745 60.3198L139.952 97.7134C140.839 98.2217 141.743 98.2166 142.495 97.8024C141.876 97.961 141.193 97.8692 140.52 97.4833Z" fill="#5589BB"/>
<path fill-rule="evenodd" clip-rule="evenodd" d="M142.411 103.245L132.934 102.002L71.755 66.9014C69.7938 65.7758 66.3676 65.9172 64.1031 67.2168L20.7523 92.0794L15.0215 91.3276V94.5589L15.0266 94.5598C14.9893 95.3066 15.4173 96.0245 16.3428 96.556L85.6758 136.335C87.6375 137.461 91.0632 137.319 93.3282 136.02L140.539 108.942C141.813 108.211 142.449 107.269 142.411 106.385V103.245Z" fill="#0037A1"/>
<path fill-rule="evenodd" clip-rule="evenodd" d="M96.444 81.0661L92.097 78.5723H44.31L20.7523 92.0796L15.0215 91.3278V94.5591L15.0266 94.56C14.9893 95.3067 15.4173 96.0247 16.3428 96.5562L85.6758 136.335C86.7124 136.93 88.1583 137.167 89.6252 137.071L96.444 81.0661Z" fill="#B4D0F6"/>
<path fill-rule="evenodd" clip-rule="evenodd" d="M17.5646 91.6611L15.0215 91.3271V94.5585L15.0266 94.5594C14.9893 95.3061 15.4173 96.0241 16.3428 96.5556L17.5646 97.2559V91.6611Z" fill="#92B6E7"/>
<path fill-rule="evenodd" clip-rule="evenodd" d="M86.373 136.658C88.2325 137.358 90.8904 137.206 92.8749 136.256V129.049H86.373V136.658Z" fill="#92B6E7"/>
<path fill-rule="evenodd" clip-rule="evenodd" d="M85.6748 133.107L16.3417 93.3284C14.3801 92.2027 14.6266 90.2376 16.8911 88.938L64.1021 61.8598C66.3666 60.5607 69.7928 60.4197 71.754 61.5444L141.087 101.324C143.049 102.45 142.803 104.415 140.538 105.715L93.3271 132.792C91.0622 134.092 87.6364 134.233 85.6748 133.107Z" fill="#D7E8FE"/>
<path fill-rule="evenodd" clip-rule="evenodd" d="M140.538 104.534L93.327 131.612C91.062 132.911 87.6363 133.052 85.6747 131.927L16.3416 92.1478C15.6985 91.7791 15.2971 91.319 15.1221 90.8223C14.8154 91.7443 15.2065 92.6765 16.3416 93.3282L85.6747 133.107C87.6363 134.233 91.062 134.091 93.327 132.792L140.538 105.715C142.06 104.841 142.666 103.668 142.306 102.649C142.083 103.321 141.492 103.987 140.538 104.534Z" fill="#FFFFFE"/>
<path fill-rule="evenodd" clip-rule="evenodd" d="M98.4263 98.7831L95.2895 96.983C95.0374 96.8388 95.0687 96.5865 95.3595 96.4195L98.4678 94.6362C98.759 94.4692 99.1987 94.4511 99.4507 94.5954L102.588 96.3954C102.84 96.5396 102.808 96.7924 102.517 96.9594L99.4087 98.7422C99.118 98.9097 98.6783 98.9278 98.4263 98.7831Z" fill="#000E4B"/>
<path fill-rule="evenodd" clip-rule="evenodd" d="M103.27 101.562L100.133 99.7628C99.8812 99.6181 99.9124 99.3653 100.203 99.1988L103.312 97.4155C103.602 97.2485 104.043 97.2304 104.294 97.3747L107.432 99.1747C107.684 99.3194 107.652 99.5717 107.361 99.7387L104.253 101.522C103.962 101.689 103.522 101.707 103.27 101.562Z" fill="#000E4B"/>
<path fill-rule="evenodd" clip-rule="evenodd" d="M108.114 104.343L104.977 102.543C104.725 102.398 104.756 102.146 105.047 101.979L108.155 100.195C108.446 100.029 108.886 100.011 109.138 100.155L112.275 101.955C112.527 102.1 112.496 102.352 112.204 102.519L109.096 104.302C108.806 104.469 108.365 104.487 108.114 104.343Z" fill="#000E4B"/>
<path fill-rule="evenodd" clip-rule="evenodd" d="M112.959 107.122L109.822 105.322C109.57 105.177 109.602 104.925 109.893 104.758L113.001 102.975C113.292 102.808 113.732 102.79 113.984 102.935L117.121 104.734C117.373 104.878 117.341 105.131 117.051 105.298L113.942 107.082C113.651 107.248 113.211 107.266 112.959 107.122Z" fill="#000E4B"/>
<path fill-rule="evenodd" clip-rule="evenodd" d="M121.573 112.064L114.728 108.136C114.477 107.992 114.508 107.74 114.799 107.573L117.908 105.789C118.198 105.622 118.638 105.604 118.89 105.749L125.735 109.676C125.987 109.82 125.955 110.073 125.664 110.24L122.556 112.023C122.265 112.19 121.825 112.208 121.573 112.064Z" fill="#000E4B"/>
<path fill-rule="evenodd" clip-rule="evenodd" d="M131.004 106.651L125.226 103.337C124.975 103.192 125.007 102.94 125.297 102.773L128.406 100.99C128.696 100.823 129.136 100.805 129.388 100.949L135.165 104.264C135.417 104.408 135.386 104.661 135.095 104.828L131.987 106.611C131.696 106.778 131.255 106.796 131.004 106.651Z" fill="#000E4B"/>
<path fill-rule="evenodd" clip-rule="evenodd" d="M82.6863 84.3417L79.549 82.5417C79.297 82.397 79.3287 82.1447 79.6195 81.9782L82.7278 80.1944C83.0186 80.0279 83.4587 80.0098 83.7103 80.154L86.8476 81.954C87.0996 82.0987 87.0679 82.3511 86.7771 82.518L83.6688 84.3013C83.3775 84.4678 82.9379 84.4859 82.6863 84.3417Z" fill="#000E4B"/>
<path fill-rule="evenodd" clip-rule="evenodd" d="M77.7208 81.4931L74.584 79.6931C74.3324 79.5489 74.3637 79.2966 74.6545 79.1291L77.7628 77.3463C78.0536 77.1793 78.4937 77.1608 78.7457 77.3059L81.8825 79.1055C82.1341 79.2497 82.1028 79.5025 81.8121 79.669L78.7037 81.4528C78.4129 81.6198 77.9728 81.6378 77.7208 81.4931Z" fill="#000E4B"/>
<path fill-rule="evenodd" clip-rule="evenodd" d="M72.7544 78.6439L69.6176 76.8448C69.3656 76.7001 69.3968 76.4474 69.6876 76.2809L72.7959 74.4975C73.0872 74.3306 73.5273 74.3125 73.7789 74.4567L76.9161 76.2567C77.1682 76.4014 77.136 76.6533 76.8452 76.8207L73.7368 78.604C73.4461 78.771 73.0064 78.7891 72.7544 78.6439Z" fill="#000E4B"/>
<path fill-rule="evenodd" clip-rule="evenodd" d="M67.7916 75.7957L64.6543 73.9957C64.4023 73.851 64.4345 73.5992 64.7252 73.4322L67.8336 71.6484C68.1243 71.4819 68.564 71.4638 68.816 71.6085L71.9528 73.4081C72.2049 73.5528 72.1736 73.8051 71.8828 73.9716L68.774 75.7554C68.4832 75.9219 68.0431 75.94 67.7916 75.7957Z" fill="#000E4B"/>
<path fill-rule="evenodd" clip-rule="evenodd" d="M87.53 87.121L84.3927 85.321C84.1407 85.1763 84.1724 84.924 84.4637 84.757L87.5716 82.9737C87.8628 82.8072 88.3024 82.7891 88.554 82.9333L91.6913 84.7333C91.9433 84.878 91.9121 85.1303 91.6208 85.2969L88.5125 87.0806C88.2217 87.2471 87.7816 87.2652 87.53 87.121Z" fill="#000E4B"/>
<path fill-rule="evenodd" clip-rule="evenodd" d="M92.3758 89.9006L89.2385 88.1006C88.9864 87.9563 89.0182 87.704 89.3089 87.5366L92.4178 85.7537C92.7085 85.5863 93.1482 85.5682 93.4002 85.7129L96.537 87.5129C96.789 87.6572 96.7573 87.9099 96.4665 88.0765L93.3582 89.8598C93.0674 90.0267 92.6273 90.0453 92.3758 89.9006Z" fill="#000E4B"/>
<path fill-rule="evenodd" clip-rule="evenodd" d="M97.2213 92.6809L94.084 90.8809C93.8324 90.7366 93.8637 90.4838 94.1545 90.3169L97.2628 88.534C97.554 88.3666 97.9937 88.3485 98.2457 88.4932L101.383 90.2932C101.635 90.4375 101.603 90.6898 101.312 90.8572L98.2037 92.6401C97.9129 92.8075 97.4733 92.8256 97.2213 92.6809Z" fill="#000E4B"/>
<path fill-rule="evenodd" clip-rule="evenodd" d="M102.065 95.4596L98.9277 93.6596C98.6762 93.5153 98.7074 93.263 98.9982 93.0965L102.107 91.3127C102.397 91.1462 102.837 91.1277 103.089 91.2724L106.226 93.0724C106.478 93.2166 106.447 93.4689 106.156 93.6364L103.047 95.4192C102.757 95.5862 102.317 95.6043 102.065 95.4596Z" fill="#000E4B"/>
<path fill-rule="evenodd" clip-rule="evenodd" d="M50.6762 82.9378L47.5389 81.1378C47.2873 80.9935 47.319 80.7412 47.6098 80.5742L51.3123 78.45C51.6031 78.2826 52.0436 78.2645 52.2952 78.4092L55.4325 80.2088C55.6845 80.3535 55.6523 80.6062 55.3616 80.7727L51.6591 82.897C51.3683 83.0644 50.9282 83.0825 50.6762 82.9378Z" fill="#000E4B"/>
<path fill-rule="evenodd" clip-rule="evenodd" d="M55.5198 85.7171L52.383 83.9175C52.131 83.7728 52.1627 83.52 52.4535 83.3535L56.156 81.2293C56.4472 81.0619 56.8873 81.0438 57.1389 81.1885L60.2757 82.9885C60.5277 83.1328 60.4965 83.3851 60.2057 83.552L56.5023 85.6767C56.2115 85.8437 55.7719 85.8618 55.5198 85.7171Z" fill="#000E4B"/>
<path fill-rule="evenodd" clip-rule="evenodd" d="M62.2189 83.4221L59.082 81.6221C58.8305 81.4778 58.8617 81.225 59.1525 81.0585L62.2609 79.2752C62.5516 79.1078 62.9917 79.0897 63.2438 79.2344L66.3806 81.0344C66.6322 81.1787 66.6009 81.431 66.3101 81.5984L63.2018 83.3813C62.911 83.5487 62.4709 83.5668 62.2189 83.4221Z" fill="#000E4B"/>
<path fill-rule="evenodd" clip-rule="evenodd" d="M67.0626 86.2016L63.9258 84.4025C63.6742 84.2578 63.7055 84.005 63.9963 83.8385L67.1046 82.0547C67.3954 81.8882 67.8355 81.8701 68.0875 82.0144L71.2243 83.8144C71.4759 83.9586 71.4446 84.2109 71.1539 84.3784L68.0455 86.1617C67.7547 86.3282 67.3146 86.3463 67.0626 86.2016Z" fill="#000E4B"/>
<path fill-rule="evenodd" clip-rule="evenodd" d="M71.9085 88.9814L68.7717 87.1813C68.5196 87.0366 68.5514 86.7843 68.8422 86.6178L71.9505 84.834C72.2413 84.6675 72.6809 84.6494 72.9334 84.7937L76.0702 86.5937C76.3223 86.7384 76.2905 86.9907 75.9998 87.1572L72.8914 88.941C72.6006 89.1075 72.1605 89.1256 71.9085 88.9814Z" fill="#000E4B"/>
<path fill-rule="evenodd" clip-rule="evenodd" d="M76.7527 91.761L73.6154 89.961C73.3634 89.8163 73.3951 89.564 73.6859 89.397L76.7943 87.6137C77.085 87.4467 77.5251 87.4286 77.7767 87.5733L80.914 89.3729C81.166 89.5176 81.1343 89.7704 80.8435 89.9369L77.7356 91.7202C77.4444 91.8872 77.0043 91.9052 76.7527 91.761Z" fill="#000E4B"/>
<path fill-rule="evenodd" clip-rule="evenodd" d="M81.5982 94.5402L78.4609 92.7402C78.2089 92.596 78.2411 92.3432 78.5319 92.1762L81.6398 90.3934C81.9305 90.226 82.3706 90.2079 82.6222 90.3526L85.7595 92.1521C86.0115 92.2968 85.9802 92.5491 85.689 92.7161L82.5807 94.4994C82.2899 94.6664 81.8498 94.6845 81.5982 94.5402Z" fill="#000E4B"/>
<path fill-rule="evenodd" clip-rule="evenodd" d="M86.4421 97.3191L83.3048 95.5196C83.0528 95.3749 83.0845 95.1225 83.3758 94.9556L86.4841 93.1723C86.7749 93.0053 87.2145 92.9872 87.4666 93.1319L90.6034 94.9319C90.8554 95.0762 90.8237 95.3285 90.5329 95.4954L87.4246 97.2788C87.1338 97.4457 86.6937 97.4638 86.4421 97.3191Z" fill="#000E4B"/>
<path fill-rule="evenodd" clip-rule="evenodd" d="M91.2857 100.099L88.1484 98.2994C87.8969 98.1551 87.9281 97.9028 88.2189 97.7363L91.3277 95.9525C91.6185 95.7856 92.0581 95.7675 92.3102 95.9122L95.4475 97.7122C95.699 97.8564 95.6673 98.1087 95.3765 98.2757L92.2682 100.059C91.9774 100.226 91.5378 100.244 91.2857 100.099Z" fill="#000E4B"/>
<path fill-rule="evenodd" clip-rule="evenodd" d="M96.1314 102.879L92.9941 101.079C92.7426 100.934 92.7738 100.682 93.0646 100.515L96.173 98.7318C96.4637 98.5649 96.9038 98.5468 97.1559 98.6915L100.293 100.491C100.545 100.636 100.513 100.888 100.222 101.055L97.1139 102.838C96.8231 103.005 96.3835 103.023 96.1314 102.879Z" fill="#000E4B"/>
<path fill-rule="evenodd" clip-rule="evenodd" d="M100.977 105.659L97.8398 103.859C97.5883 103.714 97.6196 103.461 97.9103 103.295L101.019 101.511C101.309 101.344 101.75 101.326 102.002 101.47L105.138 103.27C105.39 103.415 105.359 103.667 105.068 103.834L101.96 105.618C101.669 105.785 101.229 105.803 100.977 105.659Z" fill="#000E4B"/>
<path fill-rule="evenodd" clip-rule="evenodd" d="M105.82 108.437L102.684 106.638C102.432 106.493 102.463 106.24 102.754 106.074L105.862 104.29C106.153 104.124 106.594 104.105 106.845 104.25L109.982 106.05C110.234 106.194 110.202 106.447 109.912 106.614L106.803 108.397C106.512 108.564 106.072 108.582 105.82 108.437Z" fill="#000E4B"/>
<path fill-rule="evenodd" clip-rule="evenodd" d="M69.3555 82.1061L66.2191 80.3061C65.9671 80.1618 65.9984 79.9095 66.2891 79.743L69.3975 77.9592C69.6883 77.7927 70.1289 77.7742 70.3804 77.9189L73.5172 79.7189C73.7693 79.8631 73.7375 80.1154 73.4468 80.2829L70.3384 82.0657C70.0476 82.2327 69.6075 82.2508 69.3555 82.1061Z" fill="#000E4B"/>
<path fill-rule="evenodd" clip-rule="evenodd" d="M64.442 79.2848L61.3052 77.4848C61.0527 77.3405 61.0845 77.0882 61.3757 76.9212L64.4836 75.1379C64.7744 74.9714 65.2145 74.9529 65.4665 75.0976L68.6033 76.8971C68.8553 77.0414 68.8241 77.2941 68.5328 77.4611L65.425 79.2444C65.1342 79.4114 64.6936 79.4295 64.442 79.2848Z" fill="#000E4B"/>
<path fill-rule="evenodd" clip-rule="evenodd" d="M59.516 76.4595L52.7598 72.583C52.5082 72.4388 52.5395 72.186 52.8302 72.019L55.9386 70.2362C56.2294 70.0687 56.6695 70.0506 56.9215 70.1953L63.6777 74.0718C63.9298 74.2165 63.898 74.4688 63.6073 74.6358L60.4989 76.4191C60.2081 76.5856 59.7685 76.6037 59.516 76.4595Z" fill="#000E4B"/>
<path fill-rule="evenodd" clip-rule="evenodd" d="M62.9594 73.0235L57.4764 69.8775C57.2248 69.7333 57.2565 69.4809 57.5473 69.3135L60.6557 67.5307C60.9464 67.3637 61.3861 67.3456 61.6381 67.4903L67.1211 70.6358C67.3727 70.7801 67.3414 71.0324 67.0507 71.1998L63.9423 72.9827C63.6515 73.1501 63.2114 73.1682 62.9594 73.0235Z" fill="#000E4B"/>
<path fill-rule="evenodd" clip-rule="evenodd" d="M74.2036 84.8856L71.0668 83.0856C70.8147 82.9409 70.846 82.6886 71.1372 82.5216L74.2451 80.7383C74.5359 80.5718 74.9765 80.5537 75.228 80.698L78.3649 82.4975C78.6169 82.6427 78.5851 82.895 78.2944 83.0615L75.1865 84.8453C74.8957 85.0118 74.4551 85.0299 74.2036 84.8856Z" fill="#000E4B"/>
<path fill-rule="evenodd" clip-rule="evenodd" d="M79.0474 87.6654L75.9101 85.8653C75.6581 85.7206 75.6903 85.4683 75.9811 85.3014L79.089 83.518C79.3802 83.3511 79.8199 83.333 80.0714 83.4772L83.2087 85.2772C83.4607 85.4219 83.4295 85.6747 83.1387 85.8412L80.0303 87.6245C79.7396 87.7915 79.299 87.8096 79.0474 87.6654Z" fill="#000E4B"/>
<path fill-rule="evenodd" clip-rule="evenodd" d="M83.8912 90.4456L80.7539 88.6455C80.5019 88.5008 80.5341 88.2485 80.8248 88.0816L83.9332 86.2982C84.224 86.1313 84.6636 86.1132 84.9156 86.2579L88.0525 88.0574C88.3045 88.2021 88.2732 88.4545 87.9825 88.6214L84.8736 90.4047C84.5829 90.5717 84.1432 90.5898 83.8912 90.4456Z" fill="#000E4B"/>
<path fill-rule="evenodd" clip-rule="evenodd" d="M88.7367 93.2244L85.5994 91.4244C85.3478 91.2801 85.3796 91.0278 85.6704 90.8609L88.7787 89.0775C89.0695 88.9106 89.5091 88.8925 89.7611 89.0372L92.8984 90.8372C93.15 90.9814 93.1187 91.2338 92.828 91.4003L89.7191 93.184C89.4284 93.3506 88.9887 93.3691 88.7367 93.2244Z" fill="#000E4B"/>
<path fill-rule="evenodd" clip-rule="evenodd" d="M93.5807 96.0037L90.4434 94.2037C90.1918 94.0594 90.2231 93.8071 90.5138 93.6402L93.6227 91.8568C93.9134 91.6899 94.3531 91.6718 94.6051 91.8165L97.7424 93.616C97.994 93.7607 97.9622 94.0131 97.6715 94.18L94.5631 95.9633C94.2723 96.1303 93.8327 96.1484 93.5807 96.0037Z" fill="#000E4B"/>
<path fill-rule="evenodd" clip-rule="evenodd" d="M45.8304 80.1582L42.6936 78.3582C42.4415 78.2139 42.4733 77.9616 42.764 77.7946L46.467 75.67C46.7577 75.5035 47.1979 75.4854 47.4494 75.6296L50.5867 77.4292C50.8387 77.5743 50.8065 77.8266 50.5158 77.9931L46.8133 80.1178C46.5225 80.2848 46.0824 80.3029 45.8304 80.1582Z" fill="#000E4B"/>
<path fill-rule="evenodd" clip-rule="evenodd" d="M106.908 98.2397L103.771 96.4401C103.52 96.2954 103.551 96.0431 103.842 95.8761L106.95 94.0928C107.241 93.9263 107.681 93.9082 107.933 94.0525L111.07 95.852C111.322 95.9972 111.29 96.2495 111 96.416L107.891 98.1998C107.6 98.3663 107.16 98.3844 106.908 98.2397Z" fill="#000E4B"/>
<path fill-rule="evenodd" clip-rule="evenodd" d="M111.754 101.019L108.618 99.2189C108.366 99.0741 108.397 98.8218 108.688 98.6549L111.796 96.8716C112.087 96.7046 112.527 96.6865 112.779 96.8307L115.916 98.6308C116.168 98.7755 116.136 99.0282 115.845 99.1947L112.737 100.978C112.446 101.145 112.006 101.163 111.754 101.019Z" fill="#000E4B"/>
<path fill-rule="evenodd" clip-rule="evenodd" d="M116.6 103.799L113.463 101.999C113.211 101.854 113.243 101.602 113.534 101.435L116.642 99.6518C116.933 99.4848 117.373 99.4667 117.624 99.6114L120.762 101.411C121.014 101.556 120.982 101.808 120.691 101.975L117.583 103.758C117.292 103.925 116.852 103.943 116.6 103.799Z" fill="#000E4B"/>
<path fill-rule="evenodd" clip-rule="evenodd" d="M121.444 106.578L118.307 104.778C118.055 104.634 118.087 104.381 118.378 104.214L121.485 102.431C121.777 102.264 122.216 102.246 122.468 102.391L125.605 104.191C125.857 104.335 125.826 104.587 125.535 104.754L122.426 106.538C122.136 106.704 121.695 106.723 121.444 106.578Z" fill="#000E4B"/>
<path fill-rule="evenodd" clip-rule="evenodd" d="M126.288 109.357L123.15 107.557C122.898 107.413 122.931 107.161 123.221 106.993L126.33 105.21C126.62 105.043 127.06 105.025 127.312 105.17L130.449 106.97C130.701 107.114 130.67 107.367 130.379 107.534L127.27 109.317C126.979 109.484 126.54 109.502 126.288 109.357Z" fill="#000E4B"/>
<path fill-rule="evenodd" clip-rule="evenodd" d="M80.1355 77.4662L76.9982 75.6671C76.7462 75.5224 76.7779 75.2697 77.0691 75.1032L80.177 73.3194C80.4678 73.1529 80.9079 73.1348 81.1595 73.279L84.2968 75.079C84.5488 75.2233 84.5175 75.4756 84.2263 75.643L81.1184 77.4259C80.8276 77.5929 80.3871 77.6114 80.1355 77.4662Z" fill="#000E4B"/>
<path fill-rule="evenodd" clip-rule="evenodd" d="M75.3148 74.7011L72.1779 72.9011C71.9259 72.7564 71.9576 72.504 72.2484 72.3375L75.3568 70.5538C75.6475 70.3872 76.0872 70.3692 76.3392 70.5134L79.4765 72.3134C79.7285 72.4581 79.6968 72.7104 79.406 72.8769L76.2977 74.6607C76.0064 74.8272 75.5668 74.8453 75.3148 74.7011Z" fill="#000E4B"/>
<path fill-rule="evenodd" clip-rule="evenodd" d="M70.4945 71.9354L67.3572 70.1354C67.1057 69.9907 67.1374 69.7384 67.4282 69.5714L70.5365 67.7881C70.8273 67.6216 71.2669 67.6035 71.519 67.7478L74.6562 69.5473C74.9078 69.6925 74.8765 69.9448 74.5858 70.1113L71.477 71.8951C71.1862 72.0616 70.7465 72.0797 70.4945 71.9354Z" fill="#000E4B"/>
<path fill-rule="evenodd" clip-rule="evenodd" d="M65.6726 69.1702L62.5353 67.3702C62.2833 67.2255 62.3151 66.9732 62.6058 66.8062L65.7146 65.0229C66.0054 64.856 66.4451 64.8379 66.6971 64.9821L69.8339 66.7821C70.0859 66.9268 70.0542 67.1796 69.7634 67.3461L66.6551 69.1294C66.3643 69.2964 65.9242 69.3145 65.6726 69.1702Z" fill="#000E4B"/>
<path fill-rule="evenodd" clip-rule="evenodd" d="M70.6312 66.3259L67.4943 64.5259C67.2423 64.3816 67.274 64.1293 67.5648 63.9619L68.5925 63.3729C68.8833 63.2054 69.3229 63.1874 69.575 63.3321L72.7123 65.1321C72.9638 65.2763 72.9326 65.5286 72.6418 65.6961L71.6136 66.2851C71.3228 66.4521 70.8832 66.4701 70.6312 66.3259Z" fill="#000E4B"/>
<path fill-rule="evenodd" clip-rule="evenodd" d="M76.9219 69.9345L73.7855 68.135C73.5335 67.9907 73.5648 67.7379 73.8556 67.571L74.8833 66.9815C75.174 66.815 75.6142 66.7969 75.8662 66.9411L79.003 68.7412C79.2546 68.8854 79.2233 69.1377 78.9325 69.3047L77.9048 69.8942C77.6141 70.0611 77.1739 70.0792 76.9219 69.9345Z" fill="#000E4B"/>
<path fill-rule="evenodd" clip-rule="evenodd" d="M81.7216 72.6888L78.5843 70.8888C78.3323 70.7441 78.3636 70.4918 78.6548 70.3253L79.6821 69.7353C79.9728 69.5688 80.4129 69.5507 80.665 69.6954L83.8023 71.4945C84.0543 71.6392 84.0221 71.892 83.7313 72.0585L82.7041 72.6485C82.4133 72.815 81.9732 72.8331 81.7216 72.6888Z" fill="#000E4B"/>
<path fill-rule="evenodd" clip-rule="evenodd" d="M86.5222 75.4437L83.385 73.6437C83.1329 73.4995 83.1647 73.2472 83.4554 73.0797L84.4831 72.4907C84.7739 72.3237 85.214 72.3056 85.4656 72.4499L88.6029 74.2499C88.8549 74.3941 88.8227 74.6469 88.5319 74.8139L87.5047 75.4034C87.2139 75.5703 86.7738 75.5884 86.5222 75.4437Z" fill="#000E4B"/>
<path fill-rule="evenodd" clip-rule="evenodd" d="M91.3226 78.1981L88.1853 76.398C87.9338 76.2533 87.9655 76.001 88.2563 75.8341L89.2835 75.2441C89.5748 75.0776 90.0144 75.0595 90.2665 75.2042L93.4033 77.0038C93.6553 77.1485 93.624 77.4008 93.3328 77.5678L92.3051 78.1572C92.0143 78.3242 91.5747 78.3423 91.3226 78.1981Z" fill="#000E4B"/>
<path fill-rule="evenodd" clip-rule="evenodd" d="M118.124 93.574L114.987 91.774C114.734 91.6297 114.766 91.3774 115.057 91.21L116.085 90.6205C116.375 90.4535 116.816 90.4354 117.067 90.5802L120.204 92.3802C120.456 92.5244 120.424 92.7767 120.134 92.9442L119.106 93.5332C118.815 93.7002 118.375 93.7182 118.124 93.574Z" fill="#000E4B"/>
<path fill-rule="evenodd" clip-rule="evenodd" d="M122.922 96.3271L119.785 94.528C119.533 94.3833 119.565 94.1305 119.856 93.964L120.883 93.3741C121.174 93.2076 121.614 93.1895 121.866 93.3337L125.003 95.1337C125.255 95.2784 125.224 95.5308 124.933 95.6973L123.905 96.2872C123.614 96.4542 123.174 96.4723 122.922 96.3271Z" fill="#000E4B"/>
<path fill-rule="evenodd" clip-rule="evenodd" d="M127.723 99.0823L124.586 97.2823C124.334 97.1381 124.366 96.8858 124.657 96.7188L125.684 96.1293C125.975 95.9623 126.415 95.9442 126.667 96.0889L129.804 97.8885C130.056 98.0332 130.024 98.2855 129.734 98.4525L128.706 99.042C128.415 99.2085 127.975 99.2266 127.723 99.0823Z" fill="#000E4B"/>
<path fill-rule="evenodd" clip-rule="evenodd" d="M132.524 101.836L129.387 100.037C129.135 99.892 129.167 99.6397 129.457 99.4728L130.485 98.8833C130.776 98.7163 131.215 98.6982 131.468 98.8425L134.605 100.642C134.856 100.787 134.825 101.04 134.534 101.206L133.507 101.796C133.216 101.963 132.776 101.981 132.524 101.836Z" fill="#000E4B"/>
<path fill-rule="evenodd" clip-rule="evenodd" d="M84.9791 80.247L81.8418 78.447C81.5898 78.3022 81.622 78.0499 81.9127 77.8834L85.0206 76.0996C85.3118 75.9331 85.7515 75.9151 86.0035 76.0593L89.1403 77.8593C89.3924 78.004 89.3611 78.2563 89.0703 78.4228L85.962 80.2066C85.6708 80.3731 85.2306 80.3912 84.9791 80.247Z" fill="#000E4B"/>
<path fill-rule="evenodd" clip-rule="evenodd" d="M89.8248 83.0263L86.6875 81.2263C86.4355 81.0815 86.4677 80.8292 86.7584 80.6623L89.8668 78.8789C90.1575 78.7124 90.5972 78.6944 90.8492 78.8386L93.9865 80.6382C94.2381 80.7829 94.2068 81.0356 93.916 81.2021L90.8072 82.9859C90.5165 83.1524 90.0768 83.1705 89.8248 83.0263Z" fill="#000E4B"/>
<path fill-rule="evenodd" clip-rule="evenodd" d="M94.6685 85.8059L91.5313 84.0059C91.2797 83.8616 91.311 83.6093 91.6017 83.4419L94.7105 81.6586C95.0013 81.4916 95.441 81.4735 95.693 81.6182L98.8303 83.4178C99.0818 83.5625 99.0501 83.8153 98.7593 83.9818L95.651 85.7651C95.3602 85.9321 94.9206 85.9501 94.6685 85.8059Z" fill="#000E4B"/>
<path fill-rule="evenodd" clip-rule="evenodd" d="M99.5123 88.5847L96.375 86.7852C96.1234 86.6409 96.1547 86.3882 96.4455 86.2212L99.5543 84.4379C99.8451 84.2709 100.285 84.2528 100.537 84.3975L103.674 86.1976C103.926 86.3418 103.894 86.5941 103.603 86.7611L100.495 88.5444C100.204 88.7114 99.7643 88.7294 99.5123 88.5847Z" fill="#000E4B"/>
<path fill-rule="evenodd" clip-rule="evenodd" d="M104.358 91.364L101.221 89.564C100.969 89.4198 101 89.1675 101.291 89.001L104.399 87.2172C104.69 87.0502 105.131 87.0321 105.382 87.1768L108.52 88.9769C108.772 89.1211 108.739 89.3734 108.449 89.5404L105.34 91.3237C105.05 91.4907 104.61 91.5088 104.358 91.364Z" fill="#000E4B"/>
<path fill-rule="evenodd" clip-rule="evenodd" d="M109.204 94.144L106.067 92.3444C105.815 92.1997 105.846 91.9474 106.137 91.7804L109.245 89.9971C109.536 89.8306 109.976 89.8125 110.228 89.9568L113.365 91.7563C113.617 91.901 113.585 92.1533 113.294 92.3203L110.186 94.1041C109.895 94.2706 109.455 94.2887 109.204 94.144Z" fill="#000E4B"/>
<path fill-rule="evenodd" clip-rule="evenodd" d="M114.047 96.9242L110.91 95.1241C110.658 94.9794 110.69 94.7267 110.981 94.5601L114.089 92.7768C114.38 92.6099 114.82 92.5918 115.072 92.736L118.208 94.536C118.46 94.6807 118.429 94.933 118.138 95.1L115.03 96.8833C114.739 97.0503 114.299 97.0684 114.047 96.9242Z" fill="#000E4B"/>
<path fill-rule="evenodd" clip-rule="evenodd" d="M118.891 99.703L115.754 97.9035C115.502 97.7588 115.534 97.506 115.825 97.3395L118.933 95.5557C119.224 95.3892 119.664 95.3711 119.916 95.5154L123.052 97.3154C123.304 97.4601 123.273 97.7124 122.982 97.8794L119.874 99.6627C119.583 99.8292 119.143 99.8473 118.891 99.703Z" fill="#000E4B"/>
<path fill-rule="evenodd" clip-rule="evenodd" d="M123.737 102.482L120.599 100.682C120.348 100.538 120.38 100.286 120.67 100.119L123.779 98.3353C124.069 98.1684 124.509 98.1503 124.761 98.295L127.898 100.095C128.15 100.239 128.119 100.492 127.828 100.658L124.72 102.442C124.428 102.608 123.989 102.626 123.737 102.482Z" fill="#000E4B"/>
<path fill-rule="evenodd" clip-rule="evenodd" d="M57.2819 80.5899L48.0432 75.2891C47.7911 75.1449 47.8229 74.8921 48.1136 74.7251L51.222 72.9418C51.5128 72.7748 51.9524 72.7567 52.2044 72.9014L61.4436 78.2018C61.6952 78.3465 61.6639 78.5993 61.3731 78.7658L58.2648 80.5491C57.974 80.7161 57.5339 80.7341 57.2819 80.5899Z" fill="#000E4B"/>
<path fill-rule="evenodd" clip-rule="evenodd" d="M116.8 114.736L107.561 109.436C107.309 109.291 107.34 109.039 107.631 108.872L110.739 107.089C111.03 106.921 111.47 106.903 111.722 107.048L120.961 112.349C121.213 112.493 121.181 112.746 120.891 112.912L117.782 114.696C117.491 114.862 117.052 114.881 116.8 114.736Z" fill="#000E4B"/>
<path fill-rule="evenodd" clip-rule="evenodd" d="M97.4261 109.761L94.2893 107.961C94.0372 107.817 94.069 107.564 94.3597 107.397L98.0627 105.273C98.3535 105.106 98.7936 105.088 99.0456 105.233L102.182 107.032C102.434 107.177 102.403 107.429 102.112 107.596L98.409 109.721C98.1178 109.888 97.6781 109.906 97.4261 109.761Z" fill="#000E4B"/>
<path fill-rule="evenodd" clip-rule="evenodd" d="M62.2435 89.576L57.2268 86.6977C56.9747 86.5525 57.0065 86.3002 57.2972 86.1337L61.0002 84.009C61.291 83.8425 61.7311 83.824 61.9831 83.9687L66.9999 86.847C67.2519 86.9917 67.2202 87.244 66.9289 87.411L63.2264 89.5352C62.9357 89.7022 62.4956 89.7203 62.2435 89.576Z" fill="#000E4B"/>
<path fill-rule="evenodd" clip-rule="evenodd" d="M92.7574 107.083L87.7406 104.204C87.4886 104.06 87.5199 103.807 87.8106 103.64L91.5136 101.516C91.8048 101.349 92.2445 101.331 92.4965 101.475L97.5137 104.354C97.7658 104.499 97.7336 104.751 97.4428 104.918L93.7403 107.042C93.4495 107.209 93.0094 107.227 92.7574 107.083Z" fill="#000E4B"/>
<path fill-rule="evenodd" clip-rule="evenodd" d="M69.234 93.5856L64.2168 90.7073C63.9652 90.5626 63.9965 90.3102 64.2873 90.1433L67.9902 88.0186C68.281 87.8521 68.7211 87.834 68.9727 87.9782L73.9899 90.8571C74.2415 91.0013 74.2102 91.2541 73.9194 91.4206L70.2165 93.5448C69.9257 93.7122 69.4856 93.7303 69.234 93.5856Z" fill="#000E4B"/>
<path fill-rule="evenodd" clip-rule="evenodd" d="M69.0078 87.998L90.8209 100.513C91.0911 100.668 91.0911 100.92 90.8209 101.075L87.0447 103.242C86.774 103.397 86.3348 103.397 86.0646 103.242L64.252 90.7271L69.0078 87.998Z" fill="#000E4B"/>
<path fill-rule="evenodd" clip-rule="evenodd" d="M110.966 114.801L114.461 116.805C114.668 116.924 114.641 117.131 114.403 117.267L112.888 118.137C112.65 118.273 112.289 118.288 112.082 118.17L108.589 116.165C108.382 116.046 108.408 115.84 108.646 115.703L110.161 114.834C110.399 114.697 110.76 114.682 110.966 114.801Z" fill="#000E4B"/>
<path fill-rule="evenodd" clip-rule="evenodd" d="M106.08 111.998L109.574 114.003C109.781 114.121 109.755 114.328 109.517 114.465L108.002 115.334C107.763 115.471 107.403 115.486 107.196 115.367L103.702 113.362C103.495 113.244 103.522 113.037 103.76 112.9L105.275 112.031C105.513 111.894 105.874 111.879 106.08 111.998Z" fill="#000E4B"/>
<path fill-rule="evenodd" clip-rule="evenodd" d="M101.236 109.218L104.731 111.224C104.937 111.342 104.911 111.549 104.673 111.686L103.158 112.555C102.92 112.692 102.559 112.706 102.353 112.588L98.8579 110.583C98.6516 110.465 98.6778 110.258 98.9158 110.121L100.431 109.252C100.669 109.115 101.03 109.1 101.236 109.218Z" fill="#000E4B"/>
<path fill-rule="evenodd" clip-rule="evenodd" d="M108.756 110.463L112.25 112.467C112.456 112.586 112.43 112.793 112.192 112.93L110.678 113.799C110.439 113.935 110.078 113.951 109.872 113.832L106.378 111.827C106.171 111.709 106.197 111.502 106.436 111.365L107.95 110.496C108.189 110.359 108.549 110.345 108.756 110.463Z" fill="#000E4B"/>
<path fill-rule="evenodd" clip-rule="evenodd" d="M67.2476 115.529L45.6161 103.118C44.987 102.757 45.0659 102.126 45.7925 101.709L58.8467 94.2194C59.5738 93.8019 60.6734 93.7565 61.3035 94.1182L82.9346 106.529C83.5642 106.89 83.4853 107.521 82.7581 107.939L69.7045 115.428C68.9773 115.845 67.8777 115.891 67.2476 115.529Z" fill="#FFFFFE"/>
<mask id="mask0_135_1891" style="mask-type:alpha" maskUnits="userSpaceOnUse" x="96" y="8" width="54" height="83">
<path fill-rule="evenodd" clip-rule="evenodd" d="M125.989 85.5064L136.6 42.4558L96.5039 18.838L119.648 8.23828L149.418 19.6464C149.418 19.6464 149.599 71.7774 149.418 72.3024C149.238 72.827 138.39 90.3174 138.39 90.3174L125.989 85.5064Z" fill="white"/>
</mask>
<g mask="url(#mask0_135_1891)">
<path fill-rule="evenodd" clip-rule="evenodd" d="M112.982 26.2916C112.898 26.1743 112.774 26.0639 112.607 25.9684L107.468 23.0195C107.133 22.828 106.696 22.7329 106.259 22.7329C105.875 22.7329 105.491 22.8057 105.176 22.9509L104.317 23.4411L104.008 23.2588L105.132 22.6141C105.468 22.4212 105.909 22.3252 106.35 22.3252C106.792 22.3252 107.233 22.4212 107.569 22.6141L112.709 25.563C112.941 25.6961 113.091 25.8584 113.163 26.0291C113.287 25.7337 113.173 25.4113 112.818 25.1655C113.283 25.4869 113.338 25.9396 112.982 26.2916ZM112.815 25.1636C112.814 25.1627 112.813 25.1622 112.812 25.1617C112.813 25.1622 112.814 25.1627 112.815 25.1636ZM112.807 25.1576C112.806 25.1576 112.806 25.1572 112.806 25.1572C112.806 25.1572 112.806 25.1576 112.807 25.1576ZM112.801 25.1529C112.8 25.1529 112.8 25.1529 112.8 25.1525C112.8 25.1529 112.8 25.1529 112.801 25.1529ZM112.719 25.102C112.718 25.1015 112.718 25.1015 112.718 25.1015C112.718 25.1015 112.718 25.1015 112.719 25.102Z" fill="#2D4F80"/>
<path fill-rule="evenodd" clip-rule="evenodd" d="M113.783 29.0147L112.951 28.5254L114.195 27.8121C115.041 27.3265 115.405 26.6679 115.29 26.0329C115.303 25.9634 115.31 25.8938 115.312 25.8242V28.1377C115.306 28.1409 115.3 28.1437 115.295 28.1469L113.783 29.0147ZM112.551 28.289L114.195 27.346C114.197 27.3442 114.2 27.3428 114.203 27.3409C114.2 27.3428 114.197 27.3442 114.195 27.346L112.551 28.289ZM114.204 27.3405C114.206 27.3391 114.209 27.3377 114.211 27.3363C114.209 27.3377 114.207 27.3391 114.204 27.3405ZM114.212 27.3358C114.214 27.334 114.217 27.3326 114.219 27.3312C114.217 27.3326 114.214 27.334 114.212 27.3358ZM114.22 27.3308C114.241 27.3192 114.26 27.3071 114.28 27.2955C114.26 27.3071 114.241 27.3192 114.22 27.3308ZM114.28 27.2955C114.288 27.2904 114.296 27.2853 114.304 27.2802C114.296 27.2853 114.288 27.2904 114.28 27.2955ZM114.306 27.2792C114.309 27.2778 114.311 27.2764 114.313 27.275C114.311 27.2764 114.309 27.2778 114.306 27.2792ZM114.316 27.2727C114.318 27.2723 114.319 27.2713 114.32 27.2709C114.319 27.2713 114.318 27.2723 114.316 27.2727ZM114.324 27.2676C114.325 27.2672 114.325 27.2667 114.326 27.2662C114.325 27.2667 114.325 27.2672 114.324 27.2676Z" fill="#4E6990"/>
<path fill-rule="evenodd" clip-rule="evenodd" d="M111.086 27.427L104.318 23.4406L105.177 22.9504C105.492 22.8052 105.876 22.7324 106.26 22.7324C106.697 22.7324 107.134 22.8275 107.469 23.0191L112.608 25.9679C112.775 26.0635 112.899 26.1738 112.983 26.2912C112.91 26.364 112.819 26.4326 112.71 26.4948L111.086 27.427Z" fill="#5B6F91"/>
<path fill-rule="evenodd" clip-rule="evenodd" d="M112.551 28.2895L111.086 27.4273L112.711 26.495C112.819 26.4329 112.91 26.3642 112.984 26.2914C113.339 25.9394 113.285 25.4867 112.82 25.1653C112.819 25.1648 112.818 25.1639 112.817 25.1634C112.816 25.1625 112.815 25.162 112.814 25.1616C112.812 25.1602 112.81 25.1588 112.809 25.1574C112.808 25.1574 112.808 25.1569 112.808 25.1569C112.806 25.1555 112.803 25.1542 112.802 25.1528C112.801 25.1528 112.801 25.1528 112.801 25.1523C112.775 25.1351 112.748 25.118 112.719 25.1017C112.719 25.1013 112.719 25.1013 112.719 25.1013C112.716 25.0999 112.713 25.098 112.711 25.0966L107.571 22.1478C107.235 21.9548 106.794 21.8584 106.352 21.8584C105.911 21.8584 105.469 21.9548 105.133 22.1478L103.609 23.0225L102.145 22.1598L103.65 21.2962C104.395 20.8691 105.374 20.6553 106.352 20.6553C107.331 20.6553 108.309 20.8691 109.055 21.2962L114.195 24.2451C114.952 24.6802 115.325 25.2539 115.312 25.8248C115.31 25.8944 115.303 25.964 115.29 26.0335C115.29 26.0321 115.289 26.0303 115.289 26.0289C115.207 26.4765 114.886 26.912 114.327 27.2668C114.326 27.2672 114.325 27.2677 114.325 27.2682C114.323 27.2691 114.322 27.27 114.32 27.2714C114.319 27.2719 114.318 27.2728 114.316 27.2733C114.315 27.2742 114.314 27.2751 114.313 27.2756C114.311 27.277 114.309 27.2784 114.306 27.2798C114.306 27.2798 114.305 27.2802 114.305 27.2807C114.297 27.2858 114.289 27.2909 114.28 27.296C114.261 27.3076 114.241 27.3197 114.221 27.3312C114.221 27.3312 114.221 27.3312 114.22 27.3317C114.218 27.3331 114.215 27.3345 114.212 27.3363C114.212 27.3363 114.212 27.3363 114.212 27.3368C114.209 27.3382 114.206 27.3396 114.204 27.341C114.204 27.3415 114.204 27.3415 114.203 27.3415C114.2 27.3433 114.198 27.3447 114.195 27.3466L112.551 28.2895Z" fill="#4E6990"/>
<path fill-rule="evenodd" clip-rule="evenodd" d="M113.164 26.0289C113.092 25.8582 112.942 25.6959 112.71 25.5628L107.569 22.6139C107.234 22.421 106.792 22.325 106.351 22.325C105.91 22.325 105.468 22.421 105.132 22.6139L104.008 23.2586L103.607 23.0225L105.132 22.1478C105.468 21.9549 105.91 21.8584 106.351 21.8584C106.792 21.8584 107.234 21.9549 107.569 22.1478L112.71 25.0967C112.712 25.0981 112.715 25.0999 112.717 25.1013C112.718 25.1013 112.718 25.1013 112.718 25.1018C112.747 25.118 112.774 25.1352 112.8 25.1523C112.8 25.1528 112.8 25.1528 112.8 25.1528C112.802 25.1542 112.805 25.1556 112.806 25.157C112.807 25.157 112.807 25.1574 112.807 25.1574C112.809 25.1588 112.811 25.1602 112.813 25.1616C112.814 25.1621 112.815 25.1625 112.816 25.1635C112.817 25.1639 112.818 25.1648 112.819 25.1653C113.174 25.4111 113.288 25.7335 113.164 26.0289Z" fill="#5B6F91"/>
<path fill-rule="evenodd" clip-rule="evenodd" d="M112.951 28.5264L112.551 28.2899L114.195 27.347C114.197 27.3451 114.2 27.3437 114.203 27.3419C114.203 27.3419 114.203 27.3419 114.204 27.3414C114.207 27.34 114.209 27.3386 114.211 27.3372C114.212 27.3368 114.212 27.3368 114.212 27.3368C114.215 27.3349 114.218 27.3335 114.22 27.3321C114.221 27.3317 114.221 27.3317 114.221 27.3317C114.241 27.3201 114.26 27.308 114.28 27.2964C114.288 27.2913 114.297 27.2862 114.305 27.2811C114.305 27.2806 114.306 27.2802 114.306 27.2802C114.308 27.2788 114.31 27.2774 114.313 27.276C114.314 27.2755 114.315 27.2746 114.316 27.2737C114.317 27.2732 114.318 27.2723 114.32 27.2718C114.322 27.2704 114.323 27.2695 114.325 27.2686C114.325 27.2681 114.326 27.2677 114.327 27.2672C114.886 26.9124 115.206 26.4769 115.289 26.0293C115.289 26.0307 115.29 26.0325 115.29 26.0339C115.405 26.6689 115.041 27.3275 114.195 27.8131L112.951 28.5264Z" fill="#5B6F91"/>
<path fill-rule="evenodd" clip-rule="evenodd" d="M124.628 33.1427C124.544 33.0253 124.419 32.915 124.253 32.8194L119.113 29.8701C118.779 29.679 118.342 29.5839 117.905 29.5839C117.521 29.5839 117.137 29.6567 116.821 29.8024L115.956 30.2963L115.646 30.1141L116.777 29.4652C117.113 29.2723 117.555 29.1758 117.996 29.1758C118.438 29.1758 118.879 29.2723 119.215 29.4647L124.355 32.4141C124.587 32.5472 124.737 32.709 124.809 32.8806C124.941 32.5653 124.803 32.2202 124.391 31.9693C124.922 32.293 125.001 32.7726 124.628 33.1427ZM124.388 31.9683C124.386 31.9669 124.384 31.9655 124.382 31.9641C124.384 31.9655 124.386 31.9669 124.388 31.9683ZM124.379 31.9623C124.378 31.9618 124.377 31.9614 124.376 31.9604C124.377 31.9614 124.378 31.9618 124.379 31.9623ZM124.371 31.9581C124.37 31.9576 124.369 31.9571 124.368 31.9567C124.369 31.9571 124.37 31.9576 124.371 31.9581ZM124.362 31.9531C124.362 31.9526 124.361 31.9521 124.36 31.9517C124.361 31.9521 124.362 31.9526 124.362 31.9531Z" fill="#452B69"/>
<path fill-rule="evenodd" clip-rule="evenodd" d="M125.985 36.2024L124.59 35.381L125.84 34.6635C126.687 34.1784 127.051 33.5198 126.935 32.8849C126.947 32.8209 126.955 32.7564 126.957 32.6924V35.6445L125.985 36.2024ZM124.189 35.145L125.841 34.1974C125.843 34.196 125.846 34.1946 125.848 34.1932C125.846 34.1946 125.843 34.196 125.841 34.1974L124.189 35.145ZM125.856 34.1891C125.856 34.1891 125.856 34.1891 125.856 34.1891H125.856Z" fill="#523470"/>
<path fill-rule="evenodd" clip-rule="evenodd" d="M122.723 34.2823L115.955 30.2964L116.82 29.8024C117.136 29.6568 117.52 29.584 117.904 29.584C118.341 29.584 118.778 29.6791 119.112 29.8702L124.252 32.8195C124.419 32.915 124.543 33.0254 124.627 33.1427C124.553 33.2156 124.462 33.2842 124.354 33.3464L122.723 34.2823Z" fill="#5B6F91"/>
<path fill-rule="evenodd" clip-rule="evenodd" d="M124.187 35.1452L122.723 34.2825L124.354 33.3466C124.463 33.2844 124.554 33.2158 124.627 33.143C125.001 32.7729 124.922 32.2933 124.391 31.9695C124.39 31.9691 124.39 31.9686 124.389 31.9686C124.387 31.9672 124.385 31.9658 124.383 31.9644C124.382 31.964 124.381 31.9635 124.38 31.9626C124.379 31.9621 124.378 31.9617 124.377 31.9607C124.375 31.9598 124.373 31.9589 124.372 31.9584C124.372 31.9579 124.371 31.9575 124.37 31.957C124.368 31.9556 124.366 31.9542 124.364 31.9533C124.363 31.9528 124.362 31.9524 124.362 31.9519C124.359 31.951 124.357 31.9496 124.355 31.9482L119.215 28.9989C118.879 28.8064 118.437 28.7099 117.996 28.7099C117.555 28.7099 117.113 28.8064 116.777 28.9989L115.245 29.8778L113.781 29.0156L115.293 28.1478C115.299 28.1446 115.305 28.1418 115.31 28.1385C116.053 27.7174 117.025 27.5068 117.996 27.5068C118.975 27.5068 119.954 27.7206 120.699 28.1478L125.838 31.0971C126.603 31.5359 126.976 32.1161 126.955 32.6926C126.953 32.7566 126.946 32.8211 126.933 32.8851C126.933 32.8837 126.933 32.8823 126.933 32.8809C126.845 33.3586 126.486 33.8224 125.853 34.1893C125.853 34.1893 125.853 34.1893 125.853 34.1893C125.851 34.1907 125.848 34.1921 125.846 34.1935C125.844 34.1949 125.841 34.1963 125.838 34.1977L124.187 35.1452Z" fill="#523470"/>
<path fill-rule="evenodd" clip-rule="evenodd" d="M124.809 32.8809C124.738 32.7093 124.587 32.5475 124.356 32.4144L119.216 29.465C118.88 29.2726 118.438 29.1761 117.997 29.1761C117.555 29.1761 117.114 29.2726 116.778 29.4655L115.647 30.1144L115.246 29.8778L116.778 28.9989C117.114 28.8064 117.555 28.71 117.997 28.71C118.438 28.71 118.88 28.8064 119.216 28.9989L124.356 31.9482C124.358 31.9496 124.36 31.951 124.363 31.9519C124.363 31.9524 124.364 31.9529 124.364 31.9533C124.367 31.9543 124.369 31.9557 124.37 31.957C124.371 31.9575 124.372 31.958 124.373 31.9584C124.374 31.9589 124.376 31.9598 124.377 31.9608C124.378 31.9617 124.379 31.9621 124.381 31.9626C124.382 31.9635 124.383 31.964 124.384 31.9645C124.386 31.9659 124.388 31.9672 124.39 31.9686C124.391 31.9686 124.391 31.9691 124.391 31.9696C124.804 32.2205 124.942 32.5656 124.809 32.8809Z" fill="#5B6F91"/>
<path fill-rule="evenodd" clip-rule="evenodd" d="M124.588 35.3812L124.188 35.1451L125.839 34.1976C125.841 34.1962 125.844 34.1948 125.846 34.1934C125.849 34.192 125.851 34.1906 125.853 34.1892H125.854C126.486 33.8224 126.845 33.3586 126.933 32.8809C126.933 32.8823 126.934 32.8836 126.934 32.885C127.049 33.52 126.685 34.1786 125.839 34.6637L124.588 35.3812Z" fill="#5B6F91"/>
<path opacity="0.3" fill-rule="evenodd" clip-rule="evenodd" d="M130.44 81.1352L129.58 80.6417L131.224 79.7072L132.076 80.196L130.44 81.1352ZM126.512 83.3884L126.799 82.2224L129.579 80.6417L130.439 81.1352L126.512 83.3884ZM132.075 80.196L131.223 79.7071L138.921 75.3312V75.3145C138.941 75.89 138.569 76.4698 137.805 76.9085L132.075 80.196Z" fill="#92B6E7"/>
<path fill-rule="evenodd" clip-rule="evenodd" d="M136.595 40.465C136.511 40.3471 136.386 40.2368 136.22 40.1417L131.08 37.1924C130.746 37.0008 130.309 36.9057 129.871 36.9057C129.488 36.9057 129.104 36.979 128.788 37.1242L128.16 37.4832L127.85 37.3009L128.745 36.787C129.081 36.5945 129.522 36.498 129.963 36.498C130.405 36.498 130.846 36.5945 131.182 36.787L136.322 39.7363C136.554 39.8694 136.704 40.0318 136.776 40.2024C136.899 39.9089 136.788 39.5888 136.439 39.3439C136.897 39.6649 136.949 40.1143 136.595 40.465ZM136.438 39.3438C136.435 39.342 136.433 39.3401 136.431 39.3387C136.433 39.3401 136.435 39.342 136.438 39.3438ZM136.428 39.3364C136.428 39.336 136.427 39.3355 136.426 39.3346C136.427 39.3355 136.428 39.336 136.428 39.3364ZM136.42 39.3309C136.42 39.3304 136.42 39.3304 136.42 39.3304C136.42 39.3304 136.42 39.3304 136.42 39.3309ZM136.413 39.3263C136.412 39.3258 136.412 39.3258 136.412 39.3258C136.412 39.3258 136.412 39.3258 136.413 39.3263ZM136.33 39.2748C136.33 39.2748 136.329 39.2748 136.329 39.2743C136.329 39.2748 136.33 39.2748 136.33 39.2748Z" fill="#2D4F80"/>
<path opacity="0.05" fill-rule="evenodd" clip-rule="evenodd" d="M130.774 66.0946L132.239 65.2538V60.1487L136.536 42.7139L137.805 41.9857C138.652 41.5001 139.016 40.842 138.9 40.2066C138.913 40.1421 138.92 40.0776 138.922 40.0127V75.3313L131.223 79.7072L129.579 80.6418L126.799 82.2224L130.774 66.0946ZM137.805 41.5197C137.808 41.5183 137.81 41.5164 137.813 41.515C137.81 41.5164 137.808 41.5183 137.805 41.5197L136.389 42.3318L137.805 41.5197ZM137.821 41.5099C137.819 41.5113 137.816 41.5131 137.813 41.5145C137.816 41.5131 137.819 41.5113 137.821 41.5099ZM137.831 41.5048C137.829 41.5062 137.826 41.508 137.823 41.5094C137.826 41.508 137.829 41.5062 137.831 41.5048ZM137.892 41.469C137.872 41.4811 137.852 41.4931 137.832 41.5047C137.852 41.4926 137.872 41.4811 137.892 41.469ZM137.916 41.4537C137.908 41.4588 137.9 41.4639 137.892 41.469C137.9 41.4639 137.908 41.4588 137.916 41.4537ZM137.925 41.4491C137.923 41.4505 137.92 41.4519 137.918 41.4533C137.92 41.4519 137.923 41.4505 137.925 41.4491ZM137.931 41.4445C137.93 41.4454 137.929 41.4458 137.927 41.4468C137.929 41.4463 137.93 41.4454 137.931 41.4445ZM137.938 41.4403C137.937 41.4408 137.937 41.4408 137.936 41.4412C137.937 41.4408 137.937 41.4408 137.938 41.4403Z" fill="white"/>
<path fill-rule="evenodd" clip-rule="evenodd" d="M128.158 37.4837L128.787 37.1247C129.103 36.9795 129.487 36.9062 129.87 36.9062C130.308 36.9062 130.745 37.0013 131.079 37.1929L136.219 40.1422C136.385 40.2373 136.51 40.3477 136.594 40.4655C136.52 40.5383 136.429 40.6065 136.321 40.6691L134.925 41.4696L128.158 37.4837Z" fill="#5B6F91"/>
<path fill-rule="evenodd" clip-rule="evenodd" d="M136.389 42.3315L134.924 41.4688L136.32 40.6683C136.429 40.6057 136.52 40.5375 136.593 40.4647C136.947 40.1141 136.895 39.6647 136.437 39.3437C136.434 39.3419 136.432 39.34 136.429 39.3386C136.429 39.3377 136.428 39.3372 136.426 39.3363C136.426 39.3358 136.425 39.3354 136.424 39.3344C136.422 39.3335 136.42 39.3321 136.418 39.3307C136.418 39.3303 136.417 39.3303 136.417 39.3303C136.415 39.3289 136.413 39.3275 136.411 39.3261C136.411 39.3256 136.411 39.3256 136.41 39.3256C136.385 39.308 136.357 39.2913 136.329 39.2746C136.329 39.2746 136.328 39.2746 136.328 39.2741C136.326 39.2727 136.323 39.2714 136.321 39.27L131.18 36.3211C130.845 36.1282 130.403 36.0317 129.962 36.0317C129.521 36.0317 129.079 36.1282 128.743 36.3211L127.447 37.0646L125.982 36.2019L126.955 35.644L127.259 35.4696C128.004 35.0419 128.983 34.8281 129.962 34.8281C130.94 34.8281 131.919 35.0419 132.664 35.4696L137.804 38.4184C138.568 38.8572 138.941 39.4365 138.921 40.0125C138.918 40.0774 138.911 40.1419 138.899 40.2064C138.899 40.205 138.899 40.2036 138.898 40.2022C138.816 40.6493 138.496 41.0853 137.937 41.4401C137.936 41.4406 137.935 41.4406 137.935 41.441C137.933 41.4424 137.931 41.4433 137.93 41.4443C137.928 41.4452 137.927 41.4461 137.926 41.4466C137.925 41.4475 137.923 41.448 137.923 41.4489C137.92 41.4503 137.918 41.4517 137.916 41.4531C137.916 41.4531 137.915 41.4535 137.915 41.4535C137.907 41.4586 137.898 41.4637 137.89 41.4688C137.87 41.4809 137.851 41.4925 137.831 41.5046C137.83 41.5046 137.83 41.5046 137.83 41.5046C137.828 41.506 137.825 41.5078 137.822 41.5092C137.822 41.5097 137.822 41.5097 137.821 41.5097C137.819 41.5111 137.816 41.5129 137.814 41.5143C137.813 41.5143 137.813 41.5148 137.813 41.5148C137.81 41.5162 137.807 41.518 137.804 41.5194L136.389 42.3315Z" fill="#4E6990"/>
<path fill-rule="evenodd" clip-rule="evenodd" d="M130.773 66.0954L132.239 60.1494V65.2545L130.773 66.0954Z" fill="#5B6F91"/>
<path fill-rule="evenodd" clip-rule="evenodd" d="M136.775 40.2027C136.703 40.0321 136.553 39.8697 136.321 39.7366L131.181 36.7873C130.845 36.5948 130.403 36.4983 129.962 36.4983C129.521 36.4983 129.079 36.5948 128.743 36.7873L127.848 37.3012L127.447 37.0651L128.743 36.3216C129.079 36.1287 129.521 36.0322 129.962 36.0322C130.403 36.0322 130.845 36.1287 131.181 36.3216L136.321 39.2705C136.323 39.2719 136.326 39.2733 136.328 39.2747C136.328 39.2751 136.329 39.2751 136.329 39.2751C136.357 39.2918 136.385 39.3085 136.411 39.3262C136.411 39.3262 136.411 39.3262 136.412 39.3266C136.413 39.328 136.416 39.3294 136.418 39.3308C136.418 39.3308 136.418 39.3308 136.419 39.3313C136.42 39.3326 136.422 39.334 136.424 39.335C136.425 39.3359 136.426 39.3364 136.426 39.3368C136.428 39.3377 136.429 39.3382 136.43 39.3391C136.432 39.3405 136.434 39.3424 136.437 39.3442C136.786 39.5891 136.898 39.9092 136.775 40.2027Z" fill="#5B6F91"/>
<path fill-rule="evenodd" clip-rule="evenodd" d="M136.535 42.7136L136.599 42.4553L136.389 42.3315L137.804 41.5193C137.807 41.518 137.81 41.5161 137.813 41.5147C137.813 41.5147 137.813 41.5142 137.814 41.5142C137.816 41.5129 137.819 41.511 137.821 41.5096C137.822 41.5096 137.822 41.5096 137.822 41.5091C137.825 41.5078 137.828 41.5059 137.83 41.5045C137.83 41.5045 137.83 41.5045 137.83 41.5045C137.85 41.4929 137.87 41.4809 137.89 41.4688C137.898 41.4637 137.906 41.4586 137.914 41.4535C137.915 41.4535 137.915 41.453 137.916 41.453C137.918 41.4516 137.92 41.4502 137.922 41.4489C137.923 41.4479 137.925 41.4475 137.926 41.4465C137.927 41.4456 137.928 41.4451 137.929 41.4442C137.931 41.4433 137.933 41.4424 137.934 41.441C137.935 41.4405 137.935 41.4405 137.936 41.44C138.496 41.0852 138.816 40.6493 138.898 40.2021C138.899 40.2035 138.899 40.2049 138.899 40.2063C139.014 40.8417 138.65 41.4999 137.804 41.9855L136.535 42.7136Z" fill="#5B6F91"/>
</g>
<mask id="mask1_135_1891" style="mask-type:alpha" maskUnits="userSpaceOnUse" x="47" y="18" width="92" height="86">
<path fill-rule="evenodd" clip-rule="evenodd" d="M125.988 85.5063L136.599 42.4557L96.5027 18.8379L47.6152 36.9058L85.132 85.5559C85.132 85.5559 116.107 103.096 115.927 103.621C115.746 104.147 138.389 90.3173 138.389 90.3173L125.988 85.5063Z" fill="white"/>
</mask>
<g mask="url(#mask1_135_1891)">
<path fill-rule="evenodd" clip-rule="evenodd" d="M114.193 59.6338C115.683 60.4891 115.683 61.88 114.193 62.7353L88.863 77.2676C88.4532 77.5027 87.789 77.5027 87.3793 77.2676C86.9699 77.0324 86.9699 76.6517 87.3793 76.4165L112.709 61.8837C113.381 61.4983 113.381 60.8708 112.709 60.4849L110.254 59.0768C110.527 58.6691 110.775 58.2447 111.017 57.8115L114.193 59.6338Z" fill="#92B6E7"/>
<path fill-rule="evenodd" clip-rule="evenodd" d="M78.3191 71.218L103.648 56.6852C105.139 55.8304 107.563 55.83 109.053 56.6852L111.017 57.8118C110.776 58.245 110.528 58.6694 110.255 59.077L107.569 57.5368C106.898 57.1509 105.804 57.1509 105.132 57.5368L79.8023 72.0691C79.3925 72.3042 78.7288 72.3042 78.3191 72.0691C77.9093 71.8344 77.9093 71.4532 78.3191 71.218Z" fill="#92B6E7"/>
<path fill-rule="evenodd" clip-rule="evenodd" d="M78.0141 71.6731L78.0117 36.2784L104.556 21.5736L108.268 21.3301L111.858 23.6412L114.061 25.546L88.1983 66.3018L79.7544 71.2473L78.0141 71.6731Z" fill="#92B6E7"/>
<path fill-rule="evenodd" clip-rule="evenodd" d="M87.8307 76.1443L79.8965 71.5921V37.3848L88.0757 41.1629L87.8307 76.1443Z" fill="#76A9CF"/>
<path fill-rule="evenodd" clip-rule="evenodd" d="M115.31 25.8203V61.1574L87.4438 76.9968L87.0723 76.8488V41.4597L115.31 25.8203Z" fill="#D4EAF2"/>
<path fill-rule="evenodd" clip-rule="evenodd" d="M99.6378 26.1135L105.176 22.9509C105.852 22.6397 106.841 22.6596 107.468 23.0195L112.607 25.9684C113.006 26.1966 113.166 26.5101 113.092 26.8079L99.0983 35.1178L87.8578 41.9742L79.8965 37.3849L99.6378 26.1135Z" fill="#FFFFFE"/>
<path fill-rule="evenodd" clip-rule="evenodd" d="M88.0753 40.9043V77.4417C87.8223 77.4352 87.5726 77.3787 87.3794 77.2678C87.1777 77.1523 87.0765 77.0011 87.0732 76.8499L87.0723 76.849V41.4599L88.0753 40.9043Z" fill="#92B6E7"/>
<path fill-rule="evenodd" clip-rule="evenodd" d="M78.0117 36.7199V36.2783H78.1531L78.1965 36.5779L78.0117 36.7199Z" fill="#FFFFFE"/>
<path fill-rule="evenodd" clip-rule="evenodd" d="M87.0742 41.919V41.4668L87.211 41.6583L87.0742 41.919Z" fill="#FFFFFE"/>
<path fill-rule="evenodd" clip-rule="evenodd" d="M88.8636 41.879L114.193 27.3467C115.683 26.4914 115.683 25.1005 114.193 24.2452L109.053 21.2964C107.563 20.4416 105.139 20.4416 103.648 21.2964L78.3191 35.8292C77.9093 36.0643 77.9093 36.4456 78.3191 36.6807C78.7288 36.9154 79.3925 36.9154 79.8023 36.6807L105.132 22.1479C105.804 21.762 106.898 21.762 107.569 22.1479L112.71 25.0968C113.382 25.4822 113.382 26.1097 112.71 26.4951L87.3799 41.0279C86.9706 41.2631 86.9706 41.6443 87.3799 41.8795C87.7897 42.1141 88.4539 42.1141 88.8636 41.879Z" fill="#D4EAF2"/>
<path fill-rule="evenodd" clip-rule="evenodd" d="M95.4648 58.632L108.627 51.0804V37.9678L95.4648 45.5199V58.632Z" fill="#FFFFFE"/>
<path fill-rule="evenodd" clip-rule="evenodd" d="M78.3184 36.6806C78.7282 36.9153 79.3918 36.9153 79.8016 36.6806L105.131 22.1478C105.804 21.7619 106.897 21.7619 107.569 22.1478L112.709 25.0967C113.149 25.349 113.299 25.7052 113.163 26.0289C113.091 25.8582 112.941 25.6959 112.709 25.5628L107.569 22.6139C106.897 22.2285 105.804 22.2285 105.131 22.6139L79.8016 37.1467C79.3918 37.3819 78.7282 37.3819 78.3184 37.1467C78.008 36.9686 77.9333 36.7066 78.0939 36.4877C78.1452 36.5577 78.219 36.6236 78.3184 36.6806Z" fill="#FFFFFE"/>
<path fill-rule="evenodd" clip-rule="evenodd" d="M87.3787 41.8788C87.7885 42.1135 88.4526 42.1135 88.8624 41.8783L114.192 27.346C114.834 26.9777 115.198 26.5097 115.287 26.0283C115.404 26.6647 115.04 27.3251 114.192 27.8121L88.8624 42.3449C88.4526 42.58 87.7885 42.58 87.3787 42.3449C87.0684 42.1668 86.9941 41.9052 87.1542 41.6858C87.2056 41.7559 87.2798 41.8217 87.3787 41.8788Z" fill="#FFFFFE"/>
<path fill-rule="evenodd" clip-rule="evenodd" d="M125.838 66.4849C127.327 67.3397 127.327 68.7311 125.838 69.5859L100.508 84.1187C100.099 84.3538 99.4339 84.3538 99.0241 84.1187C98.6144 83.8835 98.6144 83.5023 99.0241 83.2671L124.353 68.7348C125.026 68.3489 125.026 67.7219 124.354 67.3364L121.899 65.9279C122.172 65.5207 122.42 65.0963 122.662 64.6631L125.838 66.4849Z" fill="#FC5252"/>
<path fill-rule="evenodd" clip-rule="evenodd" d="M89.9636 78.0688L115.293 63.536C116.784 62.6807 119.208 62.6807 120.698 63.536L122.662 64.663C122.42 65.0962 122.172 65.5206 121.9 65.9278L119.214 64.387C118.542 64.0016 117.449 64.0016 116.777 64.387L91.4468 78.9198C91.0375 79.155 90.3734 79.155 89.9636 78.9198C89.5538 78.6847 89.5538 78.3034 89.9636 78.0688Z" fill="#FC5252"/>
<path fill-rule="evenodd" clip-rule="evenodd" d="M89.6581 78.5246L89.6562 43.1295L116.2 28.4247L119.912 28.1816L123.502 30.4918L125.705 32.3976L99.8424 73.1529L91.3985 78.0984L89.6581 78.5246Z" fill="#FC5252"/>
<path fill-rule="evenodd" clip-rule="evenodd" d="M99.4772 82.9944L91.543 78.4426V44.2354L99.7218 48.013L99.4772 82.9944Z" fill="#FFCDCD"/>
<path fill-rule="evenodd" clip-rule="evenodd" d="M126.956 32.6719V68.009L99.0903 83.8483L98.7188 83.7004V48.3113L126.956 32.6719Z" fill="#FFA3A3"/>
<path fill-rule="evenodd" clip-rule="evenodd" d="M111.284 32.9643L116.822 29.8025C117.498 29.4913 118.487 29.5113 119.114 29.8702L124.254 32.8196C124.652 33.0482 124.812 33.3613 124.739 33.6586L110.744 41.9685L99.5038 48.8254L91.543 44.2361L111.284 32.9643Z" fill="#FFFFFE"/>
<path fill-rule="evenodd" clip-rule="evenodd" d="M99.7213 47.7559V84.2928C99.4683 84.2863 99.2186 84.2298 99.0254 84.1189C98.8238 84.0034 98.7225 83.8527 98.7197 83.701L98.7188 83.7001V48.311L99.7213 47.7559Z" fill="#FC5252"/>
<path fill-rule="evenodd" clip-rule="evenodd" d="M89.6562 43.571V43.1299H89.7972L89.8406 43.4295L89.6562 43.571Z" fill="#FFFFFE"/>
<path fill-rule="evenodd" clip-rule="evenodd" d="M98.7188 48.7696V48.3174L98.8555 48.5094L98.7188 48.7696Z" fill="#FFFFFE"/>
<path fill-rule="evenodd" clip-rule="evenodd" d="M100.509 48.7296L125.838 34.1968C127.328 33.3425 127.328 31.9511 125.838 31.0963L120.698 28.147C119.208 27.2922 116.784 27.2922 115.293 28.147L89.9636 42.6797C89.5538 42.9149 89.5538 43.2961 89.9636 43.5308C90.3734 43.766 91.0375 43.766 91.4468 43.5308L116.777 28.998C117.449 28.6126 118.542 28.6126 119.214 28.998L124.354 31.9473C125.026 32.3332 125.026 32.9598 124.354 33.3457L99.0245 47.8785C98.6152 48.1137 98.6147 48.4949 99.0245 48.7296C99.4343 48.9647 100.099 48.9647 100.509 48.7296Z" fill="#FFA3A3"/>
<path fill-rule="evenodd" clip-rule="evenodd" d="M107.109 65.4836L120.272 57.932V44.8193L107.109 52.371V65.4836Z" fill="#FFFFFE"/>
<path fill-rule="evenodd" clip-rule="evenodd" d="M89.9627 43.5308C90.3725 43.766 91.0366 43.766 91.4459 43.5308L116.776 28.998C117.448 28.6126 118.541 28.6126 119.213 28.998L124.353 31.9474C124.794 32.2001 124.943 32.5554 124.807 32.8801C124.736 32.7085 124.585 32.5466 124.353 32.4135L119.213 29.4642C118.541 29.0788 117.448 29.0788 116.776 29.4646L91.4459 43.997C91.0366 44.2321 90.3725 44.2321 89.9627 43.997C89.6523 43.8193 89.5781 43.5573 89.7382 43.3384C89.7896 43.4084 89.8633 43.4738 89.9627 43.5308Z" fill="#FFFFFE"/>
<path fill-rule="evenodd" clip-rule="evenodd" d="M99.025 48.7304C99.4348 48.9655 100.099 48.9655 100.509 48.7304L125.839 34.1976C126.48 33.8293 126.844 33.3623 126.933 32.8809C127.051 33.5172 126.687 34.1772 125.839 34.6637L100.509 49.1965C100.099 49.4317 99.4348 49.4317 99.025 49.1965C98.7146 49.0184 98.6409 48.7568 98.8005 48.5379C98.8518 48.6079 98.9261 48.6733 99.025 48.7304Z" fill="#FFFFFE"/>
<path fill-rule="evenodd" clip-rule="evenodd" d="M137.804 73.8076C139.294 74.6624 139.294 76.0538 137.804 76.9086L112.474 91.4409C112.065 91.6761 111.4 91.6761 110.991 91.4409C110.581 91.2058 110.581 90.825 110.991 90.5899L136.32 76.0571C136.992 75.6717 136.992 75.0446 136.321 74.6587L133.866 73.2506C134.139 72.8429 134.386 72.4185 134.628 71.9854L137.804 73.8076Z" fill="#92B6E7"/>
<path fill-rule="evenodd" clip-rule="evenodd" d="M101.928 85.3915L127.258 70.8587C128.748 70.0044 131.173 70.0039 132.663 70.8587L134.627 71.9857C134.385 72.4189 134.137 72.8433 133.864 73.251L131.179 71.7102C130.507 71.3243 129.414 71.3243 128.742 71.7102L103.412 86.2426C103.002 86.4777 102.338 86.4777 101.928 86.2426C101.519 86.0079 101.519 85.6266 101.928 85.3915Z" fill="#92B6E7"/>
<path fill-rule="evenodd" clip-rule="evenodd" d="M101.623 85.8469L101.621 50.4518L128.165 35.7469L131.877 35.5039L135.467 37.8146L137.67 39.7199L111.807 80.4756L103.364 85.4211L101.623 85.8469Z" fill="#92B6E7"/>
<path fill-rule="evenodd" clip-rule="evenodd" d="M111.442 90.3171L103.508 85.7654V51.5576L111.687 55.3362L111.442 90.3171Z" fill="#76A9CF"/>
<path fill-rule="evenodd" clip-rule="evenodd" d="M138.921 39.9941V75.3317L111.055 91.1706L110.684 91.0231V55.6336L138.921 39.9941Z" fill="#D7E8FE"/>
<path fill-rule="evenodd" clip-rule="evenodd" d="M123.249 40.286L128.787 37.1238C129.463 36.8126 130.452 36.8325 131.079 37.1919L136.219 40.1413C136.617 40.3695 136.777 40.683 136.704 40.9803L122.71 49.2902L111.469 56.1471L103.508 51.5573L123.249 40.286Z" fill="#FFFFFE"/>
<path fill-rule="evenodd" clip-rule="evenodd" d="M111.687 55.0781V91.6151C111.434 91.6091 111.184 91.5525 110.991 91.4412C110.789 91.3257 110.688 91.175 110.685 91.0238L110.684 91.0228V55.6333L111.687 55.0781Z" fill="#92B6E7"/>
<path fill-rule="evenodd" clip-rule="evenodd" d="M101.621 50.8937V50.4521H101.763L101.806 50.7522L101.621 50.8937Z" fill="#FFFFFE"/>
<path fill-rule="evenodd" clip-rule="evenodd" d="M110.684 56.0919V55.6396L110.82 55.8317L110.684 56.0919Z" fill="#FFFFFE"/>
<path fill-rule="evenodd" clip-rule="evenodd" d="M112.473 56.0528L137.803 41.5205C139.293 40.6652 139.293 39.2743 137.803 38.419L132.663 35.4702C131.173 34.6154 128.748 34.6154 127.258 35.4702L101.928 50.003C101.519 50.2377 101.519 50.6194 101.928 50.8545C102.338 51.0887 103.002 51.0887 103.412 50.8541L128.742 36.3217C129.414 35.9354 130.507 35.9354 131.179 36.3217L136.319 39.2706C136.991 39.656 136.991 40.2835 136.319 40.669L110.989 55.2017C110.58 55.4364 110.58 55.8181 110.989 56.0528C111.399 56.2875 112.063 56.2875 112.473 56.0528Z" fill="#D4EAF2"/>
<path fill-rule="evenodd" clip-rule="evenodd" d="M119.076 72.8059L132.239 65.2538V52.1416L119.076 59.6932V72.8059Z" fill="#FFFFFE"/>
<path fill-rule="evenodd" clip-rule="evenodd" d="M101.931 50.8533C102.341 51.088 103.005 51.088 103.415 50.8533L128.745 36.321C129.417 35.9347 130.511 35.9347 131.182 36.321L136.323 39.2699C136.762 39.5222 136.913 39.8779 136.776 40.2021C136.704 40.0314 136.555 39.8691 136.323 39.736L131.182 36.7867C130.511 36.4012 129.417 36.4012 128.745 36.7867L103.415 51.3195C103.005 51.5546 102.341 51.5546 101.931 51.3195C101.621 51.1414 101.547 50.8793 101.707 50.6604C101.758 50.7309 101.833 50.7963 101.931 50.8533Z" fill="#FFFFFE"/>
<path fill-rule="evenodd" clip-rule="evenodd" d="M110.99 56.0521C111.399 56.2868 112.064 56.2868 112.473 56.0521L137.804 41.5198C138.445 41.1516 138.809 40.6836 138.898 40.2021C139.015 40.8385 138.652 41.4989 137.804 41.9855L112.473 56.5183C112.064 56.7534 111.399 56.7534 110.99 56.5183C110.679 56.3402 110.606 56.0781 110.766 55.8592C110.817 55.9297 110.891 55.9951 110.99 56.0521Z" fill="#FFFFFE"/>
</g>
<path opacity="0.05" fill-rule="evenodd" clip-rule="evenodd" d="M100.02 160.001C99.3641 160.001 98.7074 159.858 98.2066 159.57C97.2046 158.996 97.2046 158.064 98.2066 157.49L144.991 130.637C145.492 130.349 146.148 130.206 146.804 130.206C147.461 130.206 148.117 130.349 148.618 130.637C149.62 131.212 149.62 132.143 148.618 132.718L101.833 159.571C101.333 159.858 100.676 160.001 100.02 160.001Z" fill="#000E4B"/>
<path fill-rule="evenodd" clip-rule="evenodd" d="M156.614 116.091C156.57 116.015 156.481 115.976 156.395 115.995L153.564 116.605L154.679 118.489L156.592 116.328C156.65 116.262 156.659 116.166 156.614 116.091Z" fill="#D4EAF2"/>
<path fill-rule="evenodd" clip-rule="evenodd" d="M155.496 117.48C155.493 117.075 155.203 116.583 154.847 116.384C154.683 116.291 154.535 116.28 154.423 116.331C151.153 116.305 147.936 117.16 145.117 118.807L144.912 118.927L148.427 124.87L149.465 124.185C151.662 122.738 153.514 120.83 154.891 118.596L155.335 117.875C155.436 117.802 155.498 117.668 155.496 117.48Z" fill="#381DDB"/>
<path fill-rule="evenodd" clip-rule="evenodd" d="M149.135 123.286C149.123 121.732 148.009 119.851 146.649 119.084C145.289 118.318 144.195 118.956 144.207 120.51C144.22 122.065 145.333 123.946 146.693 124.712C148.054 125.479 149.146 124.84 149.135 123.286Z" fill="#D7E8FE"/>
<path fill-rule="evenodd" clip-rule="evenodd" d="M127.565 137.785L148.428 124.869L144.913 118.927L123.412 130.763L127.565 137.785Z" fill="#D7E8FE"/>
<path fill-rule="evenodd" clip-rule="evenodd" d="M128.4 135.915C128.386 134.079 127.071 131.856 125.463 130.95C123.855 130.044 122.564 130.798 122.578 132.635C122.593 134.471 123.907 136.694 125.515 137.6C127.123 138.506 128.415 137.751 128.4 135.915Z" fill="#D4EAF2"/>
<path fill-rule="evenodd" clip-rule="evenodd" d="M127.21 136.61C127.196 134.774 125.881 132.551 124.274 131.645C122.666 130.739 121.374 131.493 121.389 133.33C121.403 135.166 122.718 137.39 124.326 138.296C125.933 139.201 127.225 138.447 127.21 136.61Z" fill="#D4EAF2"/>
<path fill-rule="evenodd" clip-rule="evenodd" d="M98.7749 154.603L126.375 138.481L122.222 131.459L94.6211 147.581L98.7749 154.603Z" fill="#D7E8FE"/>
<path fill-rule="evenodd" clip-rule="evenodd" d="M99.6091 152.733C99.5951 150.896 98.2799 148.673 96.672 147.767C95.0642 146.861 93.7728 147.616 93.7872 149.452C93.8012 151.288 95.1169 153.511 96.7243 154.418C98.3317 155.323 99.6236 154.569 99.6091 152.733Z" fill="#D4EAF2"/>
<path fill-rule="evenodd" clip-rule="evenodd" d="M98.5673 152.145C98.5043 151.061 97.6157 149.711 96.5833 149.129C95.5509 148.548 94.7659 148.955 94.8298 150.039C94.8928 151.123 95.7815 152.473 96.8138 153.055C97.8458 153.637 98.6313 153.229 98.5673 152.145Z" fill="#381DDB"/>
<path fill-rule="evenodd" clip-rule="evenodd" d="M128.61 135.793C128.596 133.956 127.281 131.733 125.673 130.827C125.026 130.463 124.431 130.371 123.951 130.507C124.472 129.965 125.328 129.901 126.303 130.45C127.91 131.356 129.226 133.579 129.24 135.415C129.249 136.512 128.789 137.219 128.077 137.42C128.416 137.068 128.616 136.517 128.61 135.793Z" fill="#FFFFFE"/>
<path fill-rule="evenodd" clip-rule="evenodd" d="M128.61 135.792C128.596 133.955 127.281 131.732 125.674 130.826C124.87 130.374 124.145 130.336 123.623 130.641L122.059 131.555L122.804 132.814C122.94 134.484 124.065 136.386 125.467 137.316L126.212 138.576L127.776 137.663C128.299 137.358 128.618 136.71 128.61 135.792Z" fill="#381DDB"/>
<path fill-rule="evenodd" clip-rule="evenodd" d="M127.047 136.706C127.033 134.87 125.717 132.647 124.11 131.741C122.502 130.835 121.211 131.59 121.225 133.426C121.24 135.262 122.554 137.485 124.162 138.391C125.77 139.297 127.061 138.542 127.047 136.706Z" fill="#D7E8FE"/>
<path fill-rule="evenodd" clip-rule="evenodd" d="M97.2687 152.96L95.4765 149.931L89.6267 153.348C88.7842 153.84 88.5033 154.917 88.998 155.753C89.4932 156.59 90.5764 156.87 91.4184 156.378L97.2687 152.96Z" fill="#FFA3A3"/>
<path fill-rule="evenodd" clip-rule="evenodd" d="M97.6272 152.153C97.6211 151.361 97.0536 150.401 96.36 150.011C95.666 149.62 95.1092 149.946 95.1153 150.738C95.1218 151.53 95.6889 152.49 96.3829 152.88C97.076 153.271 97.6332 152.946 97.6272 152.153Z" fill="#FFA3A3"/>
<path fill-rule="evenodd" clip-rule="evenodd" d="M104.129 141.458L103.252 140.964C102.748 140.68 102.082 140.751 101.376 141.163L98.3691 142.919C97.8021 143.251 97.3442 144.053 97.3494 144.707L97.361 146.203C97.3629 146.453 97.2397 146.741 97.0586 146.953L97.1711 147.646L96.422 147.22L96.4239 147.218C96.3151 147.164 96.246 147.038 96.2446 146.855L96.2325 145.359C96.2222 143.996 97.1762 142.323 98.3593 141.632L101.365 139.876C102.37 139.29 103.318 139.189 104.035 139.593L104.912 140.087C105.416 140.371 106.082 140.3 106.789 139.887L118.906 132.809C119.063 132.717 119.204 132.71 119.307 132.77V132.769L120.054 133.195L119.414 133.44C119.326 133.707 119.138 133.967 118.916 134.096L106.799 141.175C105.794 141.762 104.846 141.862 104.129 141.458Z" fill="#381DDB"/>
<path fill-rule="evenodd" clip-rule="evenodd" d="M104.012 141.396C103.508 141.112 102.842 141.183 102.136 141.596L99.1289 143.352C98.5618 143.683 98.104 144.485 98.1091 145.139L98.1208 146.634C98.1236 146.99 97.8762 147.424 97.5677 147.604C97.2597 147.784 97.0072 147.642 97.0044 147.287L96.9923 145.791C96.982 144.427 97.936 142.756 99.1191 142.065L102.125 140.309C103.13 139.722 104.078 139.621 104.794 140.024L105.671 140.519C106.175 140.803 106.842 140.732 107.549 140.319L119.666 133.241C119.975 133.061 120.227 133.203 120.229 133.559C120.232 133.914 119.985 134.348 119.676 134.528L107.558 141.606C106.554 142.194 105.606 142.294 104.889 141.891L104.012 141.396Z" fill="#381DDB"/>
<path fill-rule="evenodd" clip-rule="evenodd" d="M98.0723 145.386L98.0835 146.881L98.0789 146.912C98.1069 146.818 98.1223 146.724 98.1213 146.634L98.1097 145.14C98.1097 145.097 98.1162 145.052 98.1195 145.009C98.091 145.137 98.0709 145.264 98.0723 145.386Z" fill="#FFFFFE"/>
<path opacity="0.2" fill-rule="evenodd" clip-rule="evenodd" d="M87.571 121.492C85.1361 121.492 82.7013 120.959 80.8437 119.893C77.1277 117.761 77.1277 114.305 80.8432 112.173C82.7008 111.107 85.1357 110.574 87.5705 110.574C90.0059 110.574 92.4408 111.107 94.2988 112.173C98.0148 114.305 98.0148 117.761 94.2992 119.893C92.4412 120.959 90.0064 121.492 87.571 121.492Z" fill="#000E4B"/>
<path fill-rule="evenodd" clip-rule="evenodd" d="M98.3964 111.364V108.344H97.8228C97.307 107.463 96.4492 106.632 95.2255 105.931C90.9989 103.505 84.1451 103.505 79.9175 105.931C78.6938 106.632 77.836 107.463 77.3212 108.344H76.748V111.348H76.7485C76.7415 112.943 77.7968 114.539 79.918 115.756C84.1451 118.181 90.9989 118.181 95.2259 115.756C97.3397 114.543 98.3964 112.953 98.3964 111.364Z" fill="#FC5252"/>
<path fill-rule="evenodd" clip-rule="evenodd" d="M95.2246 112.736C90.9975 115.161 84.1438 115.161 79.9162 112.735C75.6896 110.31 75.6891 106.378 79.9162 103.953C84.1433 101.527 90.9975 101.527 95.2242 103.953C99.4517 106.378 99.4517 110.31 95.2246 112.736Z" fill="#FFA3A3"/>
<path fill-rule="evenodd" clip-rule="evenodd" d="M95.2234 112.735C90.9963 115.16 84.1426 115.16 79.9155 112.735C77.8899 111.573 76.8454 110.064 76.7614 108.541C76.6699 110.196 77.7144 111.867 79.9155 113.13C84.1426 115.556 90.9963 115.556 95.2234 113.13C97.4249 111.867 98.4685 110.196 98.3775 108.541C98.293 110.064 97.2494 111.573 95.2234 112.735Z" fill="#FFFFFE"/>
<path fill-rule="evenodd" clip-rule="evenodd" d="M82.3535 110.4C82.171 110.296 82.0679 110.153 82.0684 110.004L82.0791 105.957C82.0796 105.649 82.5169 105.399 83.0545 105.399C83.5931 105.399 84.0276 105.65 84.0272 105.96L84.0183 109.314L93.8171 108.122C94.344 108.058 94.8607 108.251 94.9722 108.553C95.0842 108.855 94.7477 109.152 94.2217 109.216L83.2445 110.551C82.9565 110.587 82.6569 110.545 82.4282 110.439L82.3535 110.4Z" fill="#FFFFFE"/>
<path opacity="0.05" fill-rule="evenodd" clip-rule="evenodd" d="M31.628 76.9856L23.5859 72.3717L31.628 67.7578L39.67 72.3717L31.628 76.9856Z" fill="#000E4B"/>
<path fill-rule="evenodd" clip-rule="evenodd" d="M39.6685 66.5139L31.627 71.1274V61.9L39.6685 57.2861V66.5139Z" fill="#FC5252"/>
<path fill-rule="evenodd" clip-rule="evenodd" d="M31.628 61.8997L23.5859 57.2858L31.6275 52.6719L39.6696 57.2862L31.628 61.8997Z" fill="#FFA3A3"/>
<path fill-rule="evenodd" clip-rule="evenodd" d="M31.628 71.1274L23.5859 66.5139V57.2861L31.628 61.9V71.1274Z" fill="#FC5252"/>
<path fill-rule="evenodd" clip-rule="evenodd" d="M28.732 66.1424L26.4824 64.8521V62.2715L28.732 63.5618V66.1424Z" fill="#FFFFFE"/>
<path fill-rule="evenodd" clip-rule="evenodd" d="M34.408 128.219L42.7404 123.308C43.4423 122.817 43.993 121.827 43.994 120.998L43.9996 120.348C44 119.822 43.7788 119.482 43.4376 119.384L27.0352 128.452L13.6777 135.631L13.6899 140.021L34.408 128.219Z" fill="#FFFFFE"/>
<path fill-rule="evenodd" clip-rule="evenodd" d="M13.2676 142.272L13.7105 142.527L13.7922 142.387L13.5163 142.171L13.2676 142.272Z" fill="#FFFFFE"/>
<path fill-rule="evenodd" clip-rule="evenodd" d="M13.2793 136.439L13.7329 136.7L13.6195 136.454L13.2793 136.439Z" fill="#FFFFFE"/>
<path fill-rule="evenodd" clip-rule="evenodd" d="M0 118.159L16.0995 108.94L30.0623 116.968L13.9629 126.186L0 118.159Z" fill="#FFFFFE"/>
</svg>
