<svg width="107" height="40" viewBox="0 0 107 40" fill="none" xmlns="http://www.w3.org/2000/svg">
<path d="M22.1049 31.3956C22.1049 32.2834 22.5057 32.7273 23.3072 32.7273C24.1396 32.7273 24.8333 32.5565 25.3882 32.2151L25.157 38.0026C23.6772 39.3342 22.0124 40 20.1626 40C16.6788 40 14.7828 38.5147 14.4745 35.5442C12.6247 38.5147 10.1275 40 6.98292 40C3.86912 40 1.84978 39.2147 0.92489 37.644C0.308297 36.6539 0 35.5271 0 34.2638C0 33.0004 0.0924889 31.8395 0.277467 30.781L2.86716 14.6479H10.7287L8.55523 28.2714C8.46274 28.886 8.4165 29.5006 8.4165 30.1152C8.4165 31.7542 9.2489 32.5736 10.9137 32.5736C12.301 32.5736 13.4109 32.0444 14.2433 30.9859L16.8792 14.6479H24.7408L22.1511 30.781C22.1203 30.9859 22.1049 31.1908 22.1049 31.3956Z" fill="#381DDB"/>
<path d="M49.9549 31.3956C49.9549 32.2834 50.3557 32.7273 51.1572 32.7273C51.9897 32.7273 52.6833 32.5565 53.2383 32.2151L53.007 38.0026C51.5272 39.3342 49.8624 40 48.0126 40C44.6214 40 42.7407 38.6342 42.3708 35.9027C40.8293 38.6342 38.5633 40 35.5729 40C30.5168 40 27.9888 37.5928 27.9888 32.7785C27.9888 31.959 28.0658 31.0542 28.22 30.064L29.1911 24.0717C29.6844 20.9987 30.8097 18.5574 32.567 16.7478C34.3551 14.904 36.8215 13.9821 39.9661 13.9821C41.9084 13.9821 43.4498 14.443 44.5905 15.3649L46.949 0.409729H54.8568L50.0011 30.781C49.9703 30.9859 49.9549 31.1908 49.9549 31.3956ZM36.2665 28.9373C36.2049 29.2446 36.174 29.6714 36.174 30.2177C36.174 30.764 36.4053 31.3103 36.8677 31.8566C37.3301 32.3688 38.1009 32.6248 39.1799 32.6248C40.2898 32.6248 41.2455 32.1468 42.0471 31.1908L43.4344 22.5864C43.0953 21.7328 42.2937 21.306 41.0297 21.306C38.6558 21.306 37.2685 22.5694 36.8677 25.096L36.2665 28.9373Z" fill="#381DDB"/>
<path d="M66.746 32.7273C67.4551 32.7273 68.0871 32.5565 68.642 32.2151L68.4108 38.0026C66.9618 39.3342 65.3124 40 63.4626 40C60.6571 40 58.8382 39.283 58.0058 37.8489C57.4508 36.8929 57.1734 35.8856 57.1734 34.8271C57.1734 33.7345 57.235 32.7785 57.3583 31.959L60.133 14.6479H67.9946L65.4049 30.781C65.3741 30.9859 65.3586 31.1737 65.3586 31.3444C65.3586 32.2663 65.8211 32.7273 66.746 32.7273ZM61.0579 6.29961C61.0579 4.11438 61.4895 2.52667 62.3527 1.53649C63.2468 0.512163 64.6187 0 66.4685 0C69.0582 0 70.3531 1.26334 70.3531 3.79001C70.3531 5.9411 69.906 7.51174 69.012 8.50192C68.1487 9.4921 66.7768 9.9872 64.8962 9.9872C62.3373 9.9872 61.0579 8.758 61.0579 6.29961Z" fill="#381DDB"/>
<path d="M94.6072 39.283H86.0057L82.7224 32.1639L77.173 39.283H68.5715L78.5604 26.6837L72.5486 14.2894H81.2888L84.4334 21.306L89.844 14.2894H98.5842L88.5492 26.735L94.6072 39.283Z" fill="#381DDB"/>
<path d="M97.7049 36.3124C97.7049 34.1272 98.1365 32.5395 98.9997 31.5493C99.8629 30.525 101.235 30.0128 103.115 30.0128C105.705 30.0128 107 31.2761 107 33.8028C107 35.9539 106.553 37.5245 105.659 38.5147C104.796 39.5049 103.424 40 101.543 40C98.9843 40 97.7049 38.7708 97.7049 36.3124Z" fill="#381DDB"/>
</svg>
